<svg xmlns="http://www.w3.org/2000/svg" viewBox="0 0 18 18" class="design-iconfont">
  <path d="M42.239,13.19h-9A1.387,1.387,0,0,1,31.9,11.772V2.863a1.386,1.386,0,0,1,1.338-1.419h5.374a.49.49,0,0,1,0,.979H33.241a.412.412,0,0,0-.365.44v8.884a.412.412,0,0,0,.365.44h9a.412.412,0,0,0,.365-.44V6.828a.486.486,0,1,1,.973,0v4.943a1.387,1.387,0,0,1-1.338,1.42Zm-5.958-2.936a.49.49,0,0,1-.486-.49,7.83,7.83,0,0,1,7.782-7.831.49.49,0,1,1,0,.979,6.85,6.85,0,0,0-6.809,6.851.49.49,0,0,1-.486.49Zm5.594-4.38a.492.492,0,0,1-.413-.734L42.92,2.594,40.39,1.127a.468.468,0,0,1-.17-.662.461.461,0,0,1,.657-.171L43.82,2.008a.466.466,0,0,1,.17.661l-1.7,2.961a.428.428,0,0,1-.413.245Z" transform="translate(-28.985 2.296)" fill="#333"/>
</svg>
